# xmcd
#
# Track frame offsets:
#	150
#	23984
#	47640
#	73612
#	98618
#	124098
#	144842
#	159905
#
# Disc length: 2470 seconds
#
# Revision: 5
# Processed by: cddbd v1.5.2PL0 Copyright (c) Steve Scherf et al.
# Submitted via: EasyCDDAExtractor 11.0.2.1
#
DISCID=5e09a408
DTITLE=Edda Művek - V. (Koncert 1985)
DYEAR=1985
DGENRE=AlternRock
TTITLE0=Az enyém is volt
TTITLE1=Emlékezni
TTITLE2=Így akarom
TTITLE3=Barát
TTITLE4=Barbárok
TTITLE5=A Kör
TTITLE6=Gyönyörű lányok
TTITLE7=Ünnep
EXTD=
EXTT0=
EXTT1=
EXTT2=
EXTT3=
EXTT4=
EXTT5=
EXTT6=
EXTT7=
PLAYORDER=
